<mxfile host="app.diagrams.net" agent="Mozilla/5.0 (Windows NT 10.0; Win64; x64) AppleWebKit/537.36 (KHTML, like Gecko) Chrome/129.0.0.0 Safari/537.36" version="24.7.16">
  <diagram name="Página-1" id="QvuxIqYsaIos6Q6z9FeD">
    <mxGraphModel dx="3054" dy="1744" grid="1" gridSize="10" guides="1" tooltips="1" connect="1" arrows="1" fold="1" page="1" pageScale="1" pageWidth="827" pageHeight="1169" math="0" shadow="0">
      <root>
        <mxCell id="0" />
        <mxCell id="1" parent="0" />
        <mxCell id="drNTuT1sKowNMCLu40O6-15" value="Clientes" style="whiteSpace=wrap;html=1;align=center;" parent="1" vertex="1">
          <mxGeometry x="-710" y="10" width="100" height="40" as="geometry" />
        </mxCell>
        <mxCell id="drNTuT1sKowNMCLu40O6-16" value="Informes" style="whiteSpace=wrap;html=1;align=center;" parent="1" vertex="1">
          <mxGeometry x="-1140" y="407.5" width="100" height="40" as="geometry" />
        </mxCell>
        <mxCell id="drNTuT1sKowNMCLu40O6-20" value="Matriculados" style="whiteSpace=wrap;html=1;align=center;" parent="1" vertex="1">
          <mxGeometry x="-500" y="370" width="100" height="40" as="geometry" />
        </mxCell>
        <mxCell id="drNTuT1sKowNMCLu40O6-22" value="" style="endArrow=none;html=1;rounded=0;entryX=0.5;entryY=0;entryDx=0;entryDy=0;exitX=0.5;exitY=1;exitDx=0;exitDy=0;" parent="1" source="TUGRAu5IlV4WUUAFoAW3-35" target="drNTuT1sKowNMCLu40O6-20" edge="1">
          <mxGeometry relative="1" as="geometry">
            <mxPoint x="-450" y="270" as="sourcePoint" />
            <mxPoint x="-360" y="280" as="targetPoint" />
          </mxGeometry>
        </mxCell>
        <mxCell id="drNTuT1sKowNMCLu40O6-32" value="" style="endArrow=none;html=1;rounded=0;exitX=1;exitY=0.5;exitDx=0;exitDy=0;entryX=0;entryY=0.5;entryDx=0;entryDy=0;" parent="1" source="drNTuT1sKowNMCLu40O6-20" target="TUGRAu5IlV4WUUAFoAW3-37" edge="1">
          <mxGeometry relative="1" as="geometry">
            <mxPoint x="-400" y="390" as="sourcePoint" />
            <mxPoint x="-214.1199999999999" y="390.3600000000001" as="targetPoint" />
          </mxGeometry>
        </mxCell>
        <mxCell id="drNTuT1sKowNMCLu40O6-34" value="" style="endArrow=none;html=1;rounded=0;exitX=0.5;exitY=1;exitDx=0;exitDy=0;entryX=0.5;entryY=0;entryDx=0;entryDy=0;" parent="1" target="TUGRAu5IlV4WUUAFoAW3-37" edge="1">
          <mxGeometry relative="1" as="geometry">
            <mxPoint x="-160" y="260" as="sourcePoint" />
            <mxPoint x="-160" y="360" as="targetPoint" />
          </mxGeometry>
        </mxCell>
        <mxCell id="drNTuT1sKowNMCLu40O6-36" value="&lt;font style=&quot;font-size: 14px;&quot;&gt;N:1&lt;/font&gt;" style="text;html=1;align=center;verticalAlign=middle;whiteSpace=wrap;rounded=0;" parent="1" vertex="1">
          <mxGeometry x="-190" y="420" width="60" height="30" as="geometry" />
        </mxCell>
        <mxCell id="drNTuT1sKowNMCLu40O6-38" value="" style="endArrow=none;html=1;rounded=0;exitX=0.5;exitY=1;exitDx=0;exitDy=0;entryX=0.5;entryY=0;entryDx=0;entryDy=0;" parent="1" source="TUGRAu5IlV4WUUAFoAW3-36" target="drNTuT1sKowNMCLu40O6-90" edge="1">
          <mxGeometry relative="1" as="geometry">
            <mxPoint x="-160" y="60" as="sourcePoint" />
            <mxPoint x="-160" y="220" as="targetPoint" />
          </mxGeometry>
        </mxCell>
        <mxCell id="drNTuT1sKowNMCLu40O6-39" value="" style="resizable=0;html=1;whiteSpace=wrap;align=right;verticalAlign=bottom;" parent="drNTuT1sKowNMCLu40O6-38" connectable="0" vertex="1">
          <mxGeometry x="1" relative="1" as="geometry" />
        </mxCell>
        <mxCell id="drNTuT1sKowNMCLu40O6-42" value="1&lt;div&gt;:&lt;/div&gt;&lt;div&gt;N&lt;/div&gt;" style="text;html=1;align=center;verticalAlign=middle;whiteSpace=wrap;rounded=0;" parent="1" vertex="1">
          <mxGeometry x="-120" y="15" width="60" height="30" as="geometry" />
        </mxCell>
        <mxCell id="drNTuT1sKowNMCLu40O6-60" value="&lt;u&gt;ID Matriculado&lt;/u&gt;" style="ellipse;whiteSpace=wrap;html=1;align=center;" parent="1" vertex="1">
          <mxGeometry x="-640" y="295" width="100" height="40" as="geometry" />
        </mxCell>
        <mxCell id="drNTuT1sKowNMCLu40O6-61" value="&lt;u&gt;NOMBRE Y&amp;nbsp;&lt;/u&gt;&lt;div&gt;&lt;u&gt;APELLIDO&lt;/u&gt;&lt;/div&gt;" style="ellipse;whiteSpace=wrap;html=1;align=center;" parent="1" vertex="1">
          <mxGeometry x="-640" y="345" width="100" height="40" as="geometry" />
        </mxCell>
        <mxCell id="drNTuT1sKowNMCLu40O6-62" value="Categoria" style="ellipse;whiteSpace=wrap;html=1;align=center;" parent="1" vertex="1">
          <mxGeometry x="-640" y="445" width="100" height="40" as="geometry" />
        </mxCell>
        <mxCell id="drNTuT1sKowNMCLu40O6-64" value="Cuenta Bancaria" style="ellipse;whiteSpace=wrap;html=1;align=center;" parent="1" vertex="1">
          <mxGeometry x="-640" y="395" width="100" height="40" as="geometry" />
        </mxCell>
        <mxCell id="drNTuT1sKowNMCLu40O6-72" value="&lt;u&gt;ID cliente&lt;/u&gt;" style="ellipse;whiteSpace=wrap;html=1;align=center;" parent="1" vertex="1">
          <mxGeometry x="-866.5" y="10" width="100" height="40" as="geometry" />
        </mxCell>
        <mxCell id="drNTuT1sKowNMCLu40O6-73" value="&lt;u&gt;Nombre y Apellido&lt;/u&gt;" style="ellipse;whiteSpace=wrap;html=1;align=center;" parent="1" vertex="1">
          <mxGeometry x="-870" y="-35" width="107" height="35" as="geometry" />
        </mxCell>
        <mxCell id="drNTuT1sKowNMCLu40O6-79" value="COPROCIER" style="whiteSpace=wrap;html=1;align=center;" parent="1" vertex="1">
          <mxGeometry x="-960" y="217.5" width="100" height="40" as="geometry" />
        </mxCell>
        <mxCell id="drNTuT1sKowNMCLu40O6-83" value="" style="endArrow=none;html=1;rounded=0;entryX=0.5;entryY=0;entryDx=0;entryDy=0;exitX=0.5;exitY=1;exitDx=0;exitDy=0;" parent="1" source="TUGRAu5IlV4WUUAFoAW3-34" target="drNTuT1sKowNMCLu40O6-16" edge="1">
          <mxGeometry relative="1" as="geometry">
            <mxPoint x="-1090" y="267.5" as="sourcePoint" />
            <mxPoint x="-677" y="248.5" as="targetPoint" />
          </mxGeometry>
        </mxCell>
        <mxCell id="drNTuT1sKowNMCLu40O6-84" value="" style="resizable=0;html=1;whiteSpace=wrap;align=right;verticalAlign=bottom;" parent="drNTuT1sKowNMCLu40O6-83" connectable="0" vertex="1">
          <mxGeometry x="1" relative="1" as="geometry" />
        </mxCell>
        <mxCell id="drNTuT1sKowNMCLu40O6-85" value="N:1" style="text;strokeColor=none;fillColor=none;spacingLeft=4;spacingRight=4;overflow=hidden;rotatable=0;points=[[0,0.5],[1,0.5]];portConstraint=eastwest;fontSize=12;whiteSpace=wrap;html=1;" parent="1" vertex="1">
          <mxGeometry x="-1105" y="182.5" width="30" height="25" as="geometry" />
        </mxCell>
        <mxCell id="drNTuT1sKowNMCLu40O6-90" value="Orden" style="whiteSpace=wrap;html=1;align=center;" parent="1" vertex="1">
          <mxGeometry x="-210" y="220" width="100" height="40" as="geometry" />
        </mxCell>
        <mxCell id="drNTuT1sKowNMCLu40O6-91" value="Cargos" style="ellipse;whiteSpace=wrap;html=1;align=center;" parent="1" vertex="1">
          <mxGeometry x="-850" y="307.5" width="100" height="40" as="geometry" />
        </mxCell>
        <mxCell id="drNTuT1sKowNMCLu40O6-92" value="&lt;u&gt;Direccion&lt;/u&gt;" style="ellipse;whiteSpace=wrap;html=1;align=center;" parent="1" vertex="1">
          <mxGeometry x="-1070" y="307.5" width="100" height="40" as="geometry" />
        </mxCell>
        <mxCell id="drNTuT1sKowNMCLu40O6-93" value="&lt;u&gt;Nombre&lt;/u&gt;" style="ellipse;whiteSpace=wrap;html=1;align=center;" parent="1" vertex="1">
          <mxGeometry x="-960" y="307.5" width="100" height="40" as="geometry" />
        </mxCell>
        <mxCell id="drNTuT1sKowNMCLu40O6-94" value="Orden de&amp;nbsp;&lt;div&gt;trabajo&lt;/div&gt;" style="ellipse;whiteSpace=wrap;html=1;align=center;" parent="1" vertex="1">
          <mxGeometry x="-866.5" y="60" width="100" height="40" as="geometry" />
        </mxCell>
        <mxCell id="drNTuT1sKowNMCLu40O6-98" value="" style="endArrow=none;html=1;rounded=0;exitX=1;exitY=0.5;exitDx=0;exitDy=0;entryX=0;entryY=0.5;entryDx=0;entryDy=0;" parent="1" source="drNTuT1sKowNMCLu40O6-15" target="TUGRAu5IlV4WUUAFoAW3-36" edge="1">
          <mxGeometry relative="1" as="geometry">
            <mxPoint x="-550" y="70" as="sourcePoint" />
            <mxPoint x="-220" y="30" as="targetPoint" />
            <Array as="points">
              <mxPoint x="-510" y="30" />
            </Array>
          </mxGeometry>
        </mxCell>
        <mxCell id="drNTuT1sKowNMCLu40O6-100" value="Gastos" style="ellipse;whiteSpace=wrap;html=1;align=center;" parent="1" vertex="1">
          <mxGeometry x="-1280" y="432.5" width="100" height="40" as="geometry" />
        </mxCell>
        <mxCell id="drNTuT1sKowNMCLu40O6-103" value="Desempeño" style="ellipse;whiteSpace=wrap;html=1;align=center;" parent="1" vertex="1">
          <mxGeometry x="-1280" y="482.5" width="100" height="40" as="geometry" />
        </mxCell>
        <mxCell id="drNTuT1sKowNMCLu40O6-104" value="&lt;u&gt;Numero&amp;nbsp;&lt;/u&gt;&lt;div&gt;&lt;u&gt;Informe&lt;/u&gt;&lt;/div&gt;" style="ellipse;whiteSpace=wrap;html=1;align=center;" parent="1" vertex="1">
          <mxGeometry x="-1280" y="332.5" width="100" height="40" as="geometry" />
        </mxCell>
        <mxCell id="drNTuT1sKowNMCLu40O6-106" value="Fechas" style="ellipse;whiteSpace=wrap;html=1;align=center;" parent="1" vertex="1">
          <mxGeometry x="-360" y="320" width="100" height="40" as="geometry" />
        </mxCell>
        <mxCell id="drNTuT1sKowNMCLu40O6-107" value="ID cliente" style="ellipse;whiteSpace=wrap;html=1;align=center;" parent="1" vertex="1">
          <mxGeometry x="-360" y="220" width="100" height="40" as="geometry" />
        </mxCell>
        <mxCell id="drNTuT1sKowNMCLu40O6-108" value="Presupuesto" style="ellipse;whiteSpace=wrap;html=1;align=center;" parent="1" vertex="1">
          <mxGeometry x="-360" y="270" width="100" height="40" as="geometry" />
        </mxCell>
        <mxCell id="drNTuT1sKowNMCLu40O6-109" value="ID matriculado" style="ellipse;whiteSpace=wrap;html=1;align=center;" parent="1" vertex="1">
          <mxGeometry x="-360" y="170" width="100" height="40" as="geometry" />
        </mxCell>
        <mxCell id="drNTuT1sKowNMCLu40O6-110" value="&lt;u&gt;ID de&amp;nbsp; orden&lt;/u&gt;" style="ellipse;whiteSpace=wrap;html=1;align=center;" parent="1" vertex="1">
          <mxGeometry x="-360" y="120" width="100" height="40" as="geometry" />
        </mxCell>
        <mxCell id="drNTuT1sKowNMCLu40O6-124" value="" style="edgeStyle=orthogonalEdgeStyle;rounded=0;orthogonalLoop=1;jettySize=auto;html=1;" parent="1" source="drNTuT1sKowNMCLu40O6-111" target="drNTuT1sKowNMCLu40O6-117" edge="1">
          <mxGeometry relative="1" as="geometry" />
        </mxCell>
        <mxCell id="drNTuT1sKowNMCLu40O6-111" value="Tarea" style="whiteSpace=wrap;html=1;align=center;" parent="1" vertex="1">
          <mxGeometry x="-50" y="370" width="100" height="40" as="geometry" />
        </mxCell>
        <mxCell id="drNTuT1sKowNMCLu40O6-113" value="Honorarios" style="ellipse;whiteSpace=wrap;html=1;align=center;" parent="1" vertex="1">
          <mxGeometry x="90" y="445" width="100" height="40" as="geometry" />
        </mxCell>
        <mxCell id="drNTuT1sKowNMCLu40O6-114" value="Gastos" style="ellipse;whiteSpace=wrap;html=1;align=center;" parent="1" vertex="1">
          <mxGeometry x="90" y="395" width="100" height="40" as="geometry" />
        </mxCell>
        <mxCell id="drNTuT1sKowNMCLu40O6-115" value="&lt;u&gt;ID tarea&lt;/u&gt;" style="ellipse;whiteSpace=wrap;html=1;align=center;" parent="1" vertex="1">
          <mxGeometry x="90" y="295" width="100" height="40" as="geometry" />
        </mxCell>
        <mxCell id="drNTuT1sKowNMCLu40O6-117" value="Incluye" style="shape=rhombus;perimeter=rhombusPerimeter;whiteSpace=wrap;html=1;align=center;" parent="1" vertex="1">
          <mxGeometry x="-60" y="210" width="120" height="60" as="geometry" />
        </mxCell>
        <mxCell id="drNTuT1sKowNMCLu40O6-118" value="" style="endArrow=none;html=1;rounded=0;exitX=0.5;exitY=1;exitDx=0;exitDy=0;entryX=0.5;entryY=0;entryDx=0;entryDy=0;" parent="1" source="drNTuT1sKowNMCLu40O6-117" target="drNTuT1sKowNMCLu40O6-111" edge="1">
          <mxGeometry relative="1" as="geometry">
            <mxPoint y="310" as="sourcePoint" />
            <mxPoint x="160" y="310" as="targetPoint" />
          </mxGeometry>
        </mxCell>
        <mxCell id="drNTuT1sKowNMCLu40O6-119" value="" style="resizable=0;html=1;whiteSpace=wrap;align=right;verticalAlign=bottom;" parent="drNTuT1sKowNMCLu40O6-118" connectable="0" vertex="1">
          <mxGeometry x="1" relative="1" as="geometry" />
        </mxCell>
        <mxCell id="drNTuT1sKowNMCLu40O6-120" value="" style="endArrow=none;html=1;rounded=0;exitX=1;exitY=0.5;exitDx=0;exitDy=0;entryX=0;entryY=0.5;entryDx=0;entryDy=0;" parent="1" source="drNTuT1sKowNMCLu40O6-90" target="drNTuT1sKowNMCLu40O6-117" edge="1">
          <mxGeometry relative="1" as="geometry">
            <mxPoint x="-100" y="260" as="sourcePoint" />
            <mxPoint x="60" y="260" as="targetPoint" />
          </mxGeometry>
        </mxCell>
        <mxCell id="drNTuT1sKowNMCLu40O6-121" value="" style="resizable=0;html=1;whiteSpace=wrap;align=right;verticalAlign=bottom;" parent="drNTuT1sKowNMCLu40O6-120" connectable="0" vertex="1">
          <mxGeometry x="1" relative="1" as="geometry" />
        </mxCell>
        <mxCell id="drNTuT1sKowNMCLu40O6-122" value="1:N" style="text;html=1;align=center;verticalAlign=middle;whiteSpace=wrap;rounded=0;" parent="1" vertex="1">
          <mxGeometry x="-30" y="185" width="60" height="30" as="geometry" />
        </mxCell>
        <mxCell id="drNTuT1sKowNMCLu40O6-125" value="Reclamos" style="whiteSpace=wrap;html=1;align=center;" parent="1" vertex="1">
          <mxGeometry x="-710" y="-320" width="100" height="40" as="geometry" />
        </mxCell>
        <mxCell id="drNTuT1sKowNMCLu40O6-126" value="&lt;u&gt;ID ticket&lt;/u&gt;" style="ellipse;whiteSpace=wrap;html=1;align=center;" parent="1" vertex="1">
          <mxGeometry x="-560" y="-370.5" width="100" height="40" as="geometry" />
        </mxCell>
        <mxCell id="drNTuT1sKowNMCLu40O6-127" value="Numeros de&amp;nbsp;&lt;div&gt;orden&lt;/div&gt;" style="ellipse;whiteSpace=wrap;html=1;align=center;" parent="1" vertex="1">
          <mxGeometry x="-560" y="-320.5" width="100" height="40" as="geometry" />
        </mxCell>
        <mxCell id="drNTuT1sKowNMCLu40O6-128" value="Tarea Realizada" style="ellipse;whiteSpace=wrap;html=1;align=center;" parent="1" vertex="1">
          <mxGeometry x="-560" y="-269.5" width="100" height="40" as="geometry" />
        </mxCell>
        <mxCell id="drNTuT1sKowNMCLu40O6-129" value="recibe" style="shape=rhombus;perimeter=rhombusPerimeter;whiteSpace=wrap;html=1;align=center;" parent="1" vertex="1">
          <mxGeometry x="-970" y="-332.5" width="120" height="60" as="geometry" />
        </mxCell>
        <mxCell id="drNTuT1sKowNMCLu40O6-134" value="" style="endArrow=none;html=1;rounded=0;exitX=0.5;exitY=1;exitDx=0;exitDy=0;entryX=0.5;entryY=0;entryDx=0;entryDy=0;" parent="1" source="drNTuT1sKowNMCLu40O6-129" target="drNTuT1sKowNMCLu40O6-79" edge="1">
          <mxGeometry relative="1" as="geometry">
            <mxPoint x="-310" y="-232.5" as="sourcePoint" />
            <mxPoint x="-150" y="-232.5" as="targetPoint" />
          </mxGeometry>
        </mxCell>
        <mxCell id="drNTuT1sKowNMCLu40O6-136" value="" style="endArrow=none;html=1;rounded=0;entryX=1;entryY=0.5;entryDx=0;entryDy=0;exitX=0;exitY=0.5;exitDx=0;exitDy=0;" parent="1" source="drNTuT1sKowNMCLu40O6-125" target="drNTuT1sKowNMCLu40O6-129" edge="1">
          <mxGeometry relative="1" as="geometry">
            <mxPoint x="-660" y="-230" as="sourcePoint" />
            <mxPoint x="-500" y="-230" as="targetPoint" />
          </mxGeometry>
        </mxCell>
        <mxCell id="drNTuT1sKowNMCLu40O6-140" value="emite" style="shape=rhombus;perimeter=rhombusPerimeter;whiteSpace=wrap;html=1;align=center;" parent="1" vertex="1">
          <mxGeometry x="-720" y="-179" width="120" height="60" as="geometry" />
        </mxCell>
        <mxCell id="drNTuT1sKowNMCLu40O6-141" value="" style="endArrow=none;html=1;rounded=0;exitX=0.5;exitY=1;exitDx=0;exitDy=0;entryX=0.5;entryY=0;entryDx=0;entryDy=0;" parent="1" source="drNTuT1sKowNMCLu40O6-125" target="drNTuT1sKowNMCLu40O6-140" edge="1">
          <mxGeometry relative="1" as="geometry">
            <mxPoint x="-690" y="-200" as="sourcePoint" />
            <mxPoint x="-530" y="-200" as="targetPoint" />
          </mxGeometry>
        </mxCell>
        <mxCell id="drNTuT1sKowNMCLu40O6-143" value="" style="endArrow=none;html=1;rounded=0;exitX=0.5;exitY=1;exitDx=0;exitDy=0;entryX=0.519;entryY=-0.111;entryDx=0;entryDy=0;entryPerimeter=0;" parent="1" source="drNTuT1sKowNMCLu40O6-140" target="drNTuT1sKowNMCLu40O6-15" edge="1">
          <mxGeometry relative="1" as="geometry">
            <mxPoint x="-690" y="-60" as="sourcePoint" />
            <mxPoint x="-530" y="-60" as="targetPoint" />
          </mxGeometry>
        </mxCell>
        <mxCell id="drNTuT1sKowNMCLu40O6-151" value="1:N" style="text;strokeColor=none;align=center;fillColor=none;html=1;verticalAlign=middle;whiteSpace=wrap;rounded=0;" parent="1" vertex="1">
          <mxGeometry x="-940" y="-362.5" width="60" height="30" as="geometry" />
        </mxCell>
        <mxCell id="drNTuT1sKowNMCLu40O6-152" value="" style="endArrow=none;html=1;rounded=0;exitX=0;exitY=0.5;exitDx=0;exitDy=0;entryX=1;entryY=0.5;entryDx=0;entryDy=0;" parent="1" source="TUGRAu5IlV4WUUAFoAW3-35" target="drNTuT1sKowNMCLu40O6-79" edge="1">
          <mxGeometry relative="1" as="geometry">
            <mxPoint x="-510" y="240" as="sourcePoint" />
            <mxPoint x="-440" y="30" as="targetPoint" />
          </mxGeometry>
        </mxCell>
        <mxCell id="drNTuT1sKowNMCLu40O6-26" value="&lt;font style=&quot;font-size: 14px;&quot;&gt;1:N&lt;/font&gt;" style="text;html=1;align=center;verticalAlign=middle;whiteSpace=wrap;rounded=0;" parent="1" vertex="1">
          <mxGeometry x="-480" y="182.5" width="60" height="30" as="geometry" />
        </mxCell>
        <mxCell id="TUGRAu5IlV4WUUAFoAW3-3" value="" style="endArrow=none;html=1;rounded=0;exitX=1;exitY=0.5;exitDx=0;exitDy=0;entryX=0;entryY=0.5;entryDx=0;entryDy=0;" parent="1" source="TUGRAu5IlV4WUUAFoAW3-34" target="drNTuT1sKowNMCLu40O6-79" edge="1">
          <mxGeometry width="50" height="50" relative="1" as="geometry">
            <mxPoint x="-1030" y="237.5" as="sourcePoint" />
            <mxPoint x="-850" y="387.5" as="targetPoint" />
          </mxGeometry>
        </mxCell>
        <mxCell id="TUGRAu5IlV4WUUAFoAW3-5" value="tarea a realizar" style="ellipse;whiteSpace=wrap;html=1;align=center;" parent="1" vertex="1">
          <mxGeometry x="90" y="345" width="100" height="40" as="geometry" />
        </mxCell>
        <mxCell id="TUGRAu5IlV4WUUAFoAW3-7" value="" style="endArrow=none;html=1;rounded=0;exitX=0;exitY=0.5;exitDx=0;exitDy=0;entryX=1;entryY=0.5;entryDx=0;entryDy=0;" parent="1" source="drNTuT1sKowNMCLu40O6-15" target="drNTuT1sKowNMCLu40O6-73" edge="1">
          <mxGeometry width="50" height="50" relative="1" as="geometry">
            <mxPoint x="-740" y="10" as="sourcePoint" />
            <mxPoint x="-690" y="-40" as="targetPoint" />
          </mxGeometry>
        </mxCell>
        <mxCell id="TUGRAu5IlV4WUUAFoAW3-8" value="" style="endArrow=none;html=1;rounded=0;exitX=0;exitY=0.5;exitDx=0;exitDy=0;entryX=1;entryY=0.5;entryDx=0;entryDy=0;" parent="1" source="drNTuT1sKowNMCLu40O6-15" target="drNTuT1sKowNMCLu40O6-72" edge="1">
          <mxGeometry width="50" height="50" relative="1" as="geometry">
            <mxPoint x="-740" y="190" as="sourcePoint" />
            <mxPoint x="-690" y="140" as="targetPoint" />
          </mxGeometry>
        </mxCell>
        <mxCell id="TUGRAu5IlV4WUUAFoAW3-9" value="" style="endArrow=none;html=1;rounded=0;exitX=1;exitY=0.5;exitDx=0;exitDy=0;entryX=0;entryY=0.5;entryDx=0;entryDy=0;" parent="1" source="drNTuT1sKowNMCLu40O6-94" target="drNTuT1sKowNMCLu40O6-15" edge="1">
          <mxGeometry width="50" height="50" relative="1" as="geometry">
            <mxPoint x="-730" y="200" as="sourcePoint" />
            <mxPoint x="-680" y="150" as="targetPoint" />
          </mxGeometry>
        </mxCell>
        <mxCell id="TUGRAu5IlV4WUUAFoAW3-10" value="" style="endArrow=none;html=1;rounded=0;exitX=1;exitY=0.5;exitDx=0;exitDy=0;entryX=0;entryY=0.5;entryDx=0;entryDy=0;" parent="1" target="drNTuT1sKowNMCLu40O6-16" edge="1">
          <mxGeometry width="50" height="50" relative="1" as="geometry">
            <mxPoint x="-1180" y="402.5" as="sourcePoint" />
            <mxPoint x="-990" y="487.5" as="targetPoint" />
          </mxGeometry>
        </mxCell>
        <mxCell id="TUGRAu5IlV4WUUAFoAW3-11" value="" style="endArrow=none;html=1;rounded=0;exitX=1;exitY=0.5;exitDx=0;exitDy=0;entryX=0;entryY=0.5;entryDx=0;entryDy=0;" parent="1" source="drNTuT1sKowNMCLu40O6-100" target="drNTuT1sKowNMCLu40O6-16" edge="1">
          <mxGeometry width="50" height="50" relative="1" as="geometry">
            <mxPoint x="-960" y="517.5" as="sourcePoint" />
            <mxPoint x="-910" y="467.5" as="targetPoint" />
          </mxGeometry>
        </mxCell>
        <mxCell id="TUGRAu5IlV4WUUAFoAW3-12" value="" style="endArrow=none;html=1;rounded=0;exitX=1;exitY=0.5;exitDx=0;exitDy=0;entryX=0;entryY=0.5;entryDx=0;entryDy=0;" parent="1" source="drNTuT1sKowNMCLu40O6-103" target="drNTuT1sKowNMCLu40O6-16" edge="1">
          <mxGeometry width="50" height="50" relative="1" as="geometry">
            <mxPoint x="-895" y="547.5" as="sourcePoint" />
            <mxPoint x="-845" y="497.5" as="targetPoint" />
          </mxGeometry>
        </mxCell>
        <mxCell id="TUGRAu5IlV4WUUAFoAW3-13" value="" style="endArrow=none;html=1;rounded=0;exitX=1;exitY=0.5;exitDx=0;exitDy=0;entryX=0;entryY=0.5;entryDx=0;entryDy=0;" parent="1" source="drNTuT1sKowNMCLu40O6-104" target="drNTuT1sKowNMCLu40O6-16" edge="1">
          <mxGeometry width="50" height="50" relative="1" as="geometry">
            <mxPoint x="-1105" y="567.5" as="sourcePoint" />
            <mxPoint x="-1055" y="517.5" as="targetPoint" />
          </mxGeometry>
        </mxCell>
        <mxCell id="TUGRAu5IlV4WUUAFoAW3-14" value="" style="endArrow=none;html=1;rounded=0;entryX=0.5;entryY=1;entryDx=0;entryDy=0;exitX=0.5;exitY=0;exitDx=0;exitDy=0;" parent="1" source="drNTuT1sKowNMCLu40O6-91" target="drNTuT1sKowNMCLu40O6-79" edge="1">
          <mxGeometry width="50" height="50" relative="1" as="geometry">
            <mxPoint x="-890" y="457.5" as="sourcePoint" />
            <mxPoint x="-840" y="407.5" as="targetPoint" />
          </mxGeometry>
        </mxCell>
        <mxCell id="TUGRAu5IlV4WUUAFoAW3-15" value="" style="endArrow=none;html=1;rounded=0;entryX=0.5;entryY=1;entryDx=0;entryDy=0;exitX=0.5;exitY=0;exitDx=0;exitDy=0;" parent="1" source="drNTuT1sKowNMCLu40O6-93" target="drNTuT1sKowNMCLu40O6-79" edge="1">
          <mxGeometry width="50" height="50" relative="1" as="geometry">
            <mxPoint x="-890" y="417.5" as="sourcePoint" />
            <mxPoint x="-840" y="367.5" as="targetPoint" />
          </mxGeometry>
        </mxCell>
        <mxCell id="TUGRAu5IlV4WUUAFoAW3-16" value="" style="endArrow=none;html=1;rounded=0;entryX=0.5;entryY=1;entryDx=0;entryDy=0;exitX=0.5;exitY=0;exitDx=0;exitDy=0;" parent="1" source="drNTuT1sKowNMCLu40O6-92" target="drNTuT1sKowNMCLu40O6-79" edge="1">
          <mxGeometry width="50" height="50" relative="1" as="geometry">
            <mxPoint x="-950" y="437.5" as="sourcePoint" />
            <mxPoint x="-900" y="387.5" as="targetPoint" />
          </mxGeometry>
        </mxCell>
        <mxCell id="TUGRAu5IlV4WUUAFoAW3-17" value="" style="endArrow=none;html=1;rounded=0;exitX=1;exitY=0.5;exitDx=0;exitDy=0;entryX=0;entryY=0.5;entryDx=0;entryDy=0;" parent="1" source="drNTuT1sKowNMCLu40O6-62" target="drNTuT1sKowNMCLu40O6-20" edge="1">
          <mxGeometry width="50" height="50" relative="1" as="geometry">
            <mxPoint x="-370" y="510" as="sourcePoint" />
            <mxPoint x="-320" y="460" as="targetPoint" />
          </mxGeometry>
        </mxCell>
        <mxCell id="TUGRAu5IlV4WUUAFoAW3-18" value="" style="endArrow=none;html=1;rounded=0;exitX=1;exitY=0.5;exitDx=0;exitDy=0;entryX=0;entryY=0.5;entryDx=0;entryDy=0;" parent="1" source="drNTuT1sKowNMCLu40O6-64" target="drNTuT1sKowNMCLu40O6-20" edge="1">
          <mxGeometry width="50" height="50" relative="1" as="geometry">
            <mxPoint x="-400" y="500" as="sourcePoint" />
            <mxPoint x="-350" y="450" as="targetPoint" />
          </mxGeometry>
        </mxCell>
        <mxCell id="TUGRAu5IlV4WUUAFoAW3-19" value="" style="endArrow=none;html=1;rounded=0;exitX=1;exitY=0.5;exitDx=0;exitDy=0;entryX=0;entryY=0.5;entryDx=0;entryDy=0;" parent="1" source="drNTuT1sKowNMCLu40O6-61" target="drNTuT1sKowNMCLu40O6-20" edge="1">
          <mxGeometry width="50" height="50" relative="1" as="geometry">
            <mxPoint x="-410" y="500" as="sourcePoint" />
            <mxPoint x="-360" y="450" as="targetPoint" />
          </mxGeometry>
        </mxCell>
        <mxCell id="TUGRAu5IlV4WUUAFoAW3-20" value="" style="endArrow=none;html=1;rounded=0;exitX=1;exitY=0.5;exitDx=0;exitDy=0;entryX=0;entryY=0.5;entryDx=0;entryDy=0;" parent="1" source="drNTuT1sKowNMCLu40O6-60" target="drNTuT1sKowNMCLu40O6-20" edge="1">
          <mxGeometry width="50" height="50" relative="1" as="geometry">
            <mxPoint x="-410" y="550" as="sourcePoint" />
            <mxPoint x="-360" y="500" as="targetPoint" />
          </mxGeometry>
        </mxCell>
        <mxCell id="TUGRAu5IlV4WUUAFoAW3-21" value="" style="endArrow=none;html=1;rounded=0;exitX=1;exitY=0.5;exitDx=0;exitDy=0;entryX=0;entryY=0.5;entryDx=0;entryDy=0;" parent="1" source="drNTuT1sKowNMCLu40O6-111" target="drNTuT1sKowNMCLu40O6-115" edge="1">
          <mxGeometry width="50" height="50" relative="1" as="geometry">
            <mxPoint x="220" y="200" as="sourcePoint" />
            <mxPoint x="270" y="150" as="targetPoint" />
          </mxGeometry>
        </mxCell>
        <mxCell id="TUGRAu5IlV4WUUAFoAW3-22" value="" style="endArrow=none;html=1;rounded=0;exitX=1;exitY=0.5;exitDx=0;exitDy=0;entryX=0;entryY=0.5;entryDx=0;entryDy=0;" parent="1" source="drNTuT1sKowNMCLu40O6-111" target="TUGRAu5IlV4WUUAFoAW3-5" edge="1">
          <mxGeometry width="50" height="50" relative="1" as="geometry">
            <mxPoint x="260" y="220" as="sourcePoint" />
            <mxPoint x="310" y="170" as="targetPoint" />
          </mxGeometry>
        </mxCell>
        <mxCell id="TUGRAu5IlV4WUUAFoAW3-23" value="" style="endArrow=none;html=1;rounded=0;exitX=1;exitY=0.5;exitDx=0;exitDy=0;entryX=0;entryY=0.5;entryDx=0;entryDy=0;" parent="1" source="drNTuT1sKowNMCLu40O6-111" target="drNTuT1sKowNMCLu40O6-114" edge="1">
          <mxGeometry width="50" height="50" relative="1" as="geometry">
            <mxPoint x="290" y="270" as="sourcePoint" />
            <mxPoint x="340" y="220" as="targetPoint" />
          </mxGeometry>
        </mxCell>
        <mxCell id="TUGRAu5IlV4WUUAFoAW3-24" value="" style="endArrow=none;html=1;rounded=0;exitX=1;exitY=0.5;exitDx=0;exitDy=0;entryX=0;entryY=0.5;entryDx=0;entryDy=0;" parent="1" source="drNTuT1sKowNMCLu40O6-111" target="drNTuT1sKowNMCLu40O6-113" edge="1">
          <mxGeometry width="50" height="50" relative="1" as="geometry">
            <mxPoint x="290" y="300" as="sourcePoint" />
            <mxPoint x="340" y="250" as="targetPoint" />
          </mxGeometry>
        </mxCell>
        <mxCell id="TUGRAu5IlV4WUUAFoAW3-25" value="" style="endArrow=none;html=1;rounded=0;exitX=1;exitY=0.5;exitDx=0;exitDy=0;entryX=0;entryY=0.5;entryDx=0;entryDy=0;" parent="1" source="drNTuT1sKowNMCLu40O6-109" target="drNTuT1sKowNMCLu40O6-90" edge="1">
          <mxGeometry width="50" height="50" relative="1" as="geometry">
            <mxPoint x="-10" y="80" as="sourcePoint" />
            <mxPoint x="40" y="30" as="targetPoint" />
          </mxGeometry>
        </mxCell>
        <mxCell id="TUGRAu5IlV4WUUAFoAW3-26" value="" style="endArrow=none;html=1;rounded=0;exitX=1;exitY=0.5;exitDx=0;exitDy=0;entryX=0;entryY=0.5;entryDx=0;entryDy=0;" parent="1" source="drNTuT1sKowNMCLu40O6-107" target="drNTuT1sKowNMCLu40O6-90" edge="1">
          <mxGeometry width="50" height="50" relative="1" as="geometry">
            <mxPoint x="-20" y="100" as="sourcePoint" />
            <mxPoint x="30" y="50" as="targetPoint" />
          </mxGeometry>
        </mxCell>
        <mxCell id="TUGRAu5IlV4WUUAFoAW3-27" value="" style="endArrow=none;html=1;rounded=0;exitX=1;exitY=0.5;exitDx=0;exitDy=0;entryX=0;entryY=0.5;entryDx=0;entryDy=0;" parent="1" source="drNTuT1sKowNMCLu40O6-106" target="drNTuT1sKowNMCLu40O6-90" edge="1">
          <mxGeometry width="50" height="50" relative="1" as="geometry">
            <mxPoint x="-50" y="140" as="sourcePoint" />
            <mxPoint y="90" as="targetPoint" />
          </mxGeometry>
        </mxCell>
        <mxCell id="TUGRAu5IlV4WUUAFoAW3-28" value="" style="endArrow=none;html=1;rounded=0;exitX=1;exitY=0.5;exitDx=0;exitDy=0;entryX=0;entryY=0.5;entryDx=0;entryDy=0;" parent="1" source="drNTuT1sKowNMCLu40O6-108" target="drNTuT1sKowNMCLu40O6-90" edge="1">
          <mxGeometry width="50" height="50" relative="1" as="geometry">
            <mxPoint x="-10" y="90" as="sourcePoint" />
            <mxPoint x="40" y="40" as="targetPoint" />
          </mxGeometry>
        </mxCell>
        <mxCell id="TUGRAu5IlV4WUUAFoAW3-29" value="" style="endArrow=none;html=1;rounded=0;exitX=1;exitY=0.5;exitDx=0;exitDy=0;entryX=0;entryY=0.5;entryDx=0;entryDy=0;" parent="1" source="drNTuT1sKowNMCLu40O6-110" target="drNTuT1sKowNMCLu40O6-90" edge="1">
          <mxGeometry width="50" height="50" relative="1" as="geometry">
            <mxPoint x="-10" y="110" as="sourcePoint" />
            <mxPoint x="40" y="60" as="targetPoint" />
          </mxGeometry>
        </mxCell>
        <mxCell id="TUGRAu5IlV4WUUAFoAW3-30" value="" style="endArrow=none;html=1;rounded=0;exitX=1;exitY=0.5;exitDx=0;exitDy=0;entryX=0;entryY=0.5;entryDx=0;entryDy=0;" parent="1" source="drNTuT1sKowNMCLu40O6-125" target="drNTuT1sKowNMCLu40O6-126" edge="1">
          <mxGeometry width="50" height="50" relative="1" as="geometry">
            <mxPoint x="-340" y="-340" as="sourcePoint" />
            <mxPoint x="-290" y="-390" as="targetPoint" />
          </mxGeometry>
        </mxCell>
        <mxCell id="TUGRAu5IlV4WUUAFoAW3-31" value="" style="endArrow=none;html=1;rounded=0;exitX=1;exitY=0.5;exitDx=0;exitDy=0;entryX=0;entryY=0.5;entryDx=0;entryDy=0;" parent="1" source="drNTuT1sKowNMCLu40O6-125" target="drNTuT1sKowNMCLu40O6-127" edge="1">
          <mxGeometry width="50" height="50" relative="1" as="geometry">
            <mxPoint x="-330" y="-340" as="sourcePoint" />
            <mxPoint x="-280" y="-390" as="targetPoint" />
          </mxGeometry>
        </mxCell>
        <mxCell id="TUGRAu5IlV4WUUAFoAW3-32" value="" style="endArrow=none;html=1;rounded=0;exitX=1;exitY=0.5;exitDx=0;exitDy=0;entryX=0;entryY=0.5;entryDx=0;entryDy=0;" parent="1" source="drNTuT1sKowNMCLu40O6-125" target="drNTuT1sKowNMCLu40O6-128" edge="1">
          <mxGeometry width="50" height="50" relative="1" as="geometry">
            <mxPoint x="-300" y="-320" as="sourcePoint" />
            <mxPoint x="-250" y="-370" as="targetPoint" />
          </mxGeometry>
        </mxCell>
        <mxCell id="TUGRAu5IlV4WUUAFoAW3-33" value="N&lt;div&gt;:&lt;/div&gt;&lt;div&gt;1&lt;/div&gt;" style="text;html=1;align=center;verticalAlign=middle;whiteSpace=wrap;rounded=0;" parent="1" vertex="1">
          <mxGeometry x="-620" y="-164" width="60" height="30" as="geometry" />
        </mxCell>
        <mxCell id="TUGRAu5IlV4WUUAFoAW3-34" value="recibe" style="shape=rhombus;perimeter=rhombusPerimeter;whiteSpace=wrap;html=1;align=center;" parent="1" vertex="1">
          <mxGeometry x="-1150" y="207.5" width="120" height="60" as="geometry" />
        </mxCell>
        <mxCell id="TUGRAu5IlV4WUUAFoAW3-35" value="pertenece" style="shape=rhombus;perimeter=rhombusPerimeter;whiteSpace=wrap;html=1;align=center;" parent="1" vertex="1">
          <mxGeometry x="-510" y="207.5" width="120" height="60" as="geometry" />
        </mxCell>
        <mxCell id="TUGRAu5IlV4WUUAFoAW3-36" value="genera" style="shape=rhombus;perimeter=rhombusPerimeter;whiteSpace=wrap;html=1;align=center;" parent="1" vertex="1">
          <mxGeometry x="-220" width="120" height="60" as="geometry" />
        </mxCell>
        <mxCell id="TUGRAu5IlV4WUUAFoAW3-37" value="recibe" style="shape=rhombus;perimeter=rhombusPerimeter;whiteSpace=wrap;html=1;align=center;" parent="1" vertex="1">
          <mxGeometry x="-220" y="360" width="120" height="60" as="geometry" />
        </mxCell>
        <mxCell id="Z2uj1v73rBXcL8muwOaY-1" value="Clientes" style="shape=table;startSize=30;container=1;collapsible=1;childLayout=tableLayout;fixedRows=1;rowLines=0;fontStyle=1;align=center;resizeLast=1;html=1;" vertex="1" parent="1">
          <mxGeometry x="-380" y="760" width="180" height="120" as="geometry" />
        </mxCell>
        <mxCell id="Z2uj1v73rBXcL8muwOaY-2" value="" style="shape=tableRow;horizontal=0;startSize=0;swimlaneHead=0;swimlaneBody=0;fillColor=none;collapsible=0;dropTarget=0;points=[[0,0.5],[1,0.5]];portConstraint=eastwest;top=0;left=0;right=0;bottom=1;" vertex="1" parent="Z2uj1v73rBXcL8muwOaY-1">
          <mxGeometry y="30" width="180" height="30" as="geometry" />
        </mxCell>
        <mxCell id="Z2uj1v73rBXcL8muwOaY-3" value="PK" style="shape=partialRectangle;connectable=0;fillColor=none;top=0;left=0;bottom=0;right=0;fontStyle=1;overflow=hidden;whiteSpace=wrap;html=1;" vertex="1" parent="Z2uj1v73rBXcL8muwOaY-2">
          <mxGeometry width="30" height="30" as="geometry">
            <mxRectangle width="30" height="30" as="alternateBounds" />
          </mxGeometry>
        </mxCell>
        <mxCell id="Z2uj1v73rBXcL8muwOaY-4" value="ID cliente" style="shape=partialRectangle;connectable=0;fillColor=none;top=0;left=0;bottom=0;right=0;align=left;spacingLeft=6;fontStyle=5;overflow=hidden;whiteSpace=wrap;html=1;" vertex="1" parent="Z2uj1v73rBXcL8muwOaY-2">
          <mxGeometry x="30" width="150" height="30" as="geometry">
            <mxRectangle width="150" height="30" as="alternateBounds" />
          </mxGeometry>
        </mxCell>
        <mxCell id="Z2uj1v73rBXcL8muwOaY-5" value="" style="shape=tableRow;horizontal=0;startSize=0;swimlaneHead=0;swimlaneBody=0;fillColor=none;collapsible=0;dropTarget=0;points=[[0,0.5],[1,0.5]];portConstraint=eastwest;top=0;left=0;right=0;bottom=0;" vertex="1" parent="Z2uj1v73rBXcL8muwOaY-1">
          <mxGeometry y="60" width="180" height="30" as="geometry" />
        </mxCell>
        <mxCell id="Z2uj1v73rBXcL8muwOaY-6" value="PK" style="shape=partialRectangle;connectable=0;fillColor=none;top=0;left=0;bottom=0;right=0;editable=1;overflow=hidden;whiteSpace=wrap;html=1;" vertex="1" parent="Z2uj1v73rBXcL8muwOaY-5">
          <mxGeometry width="30" height="30" as="geometry">
            <mxRectangle width="30" height="30" as="alternateBounds" />
          </mxGeometry>
        </mxCell>
        <mxCell id="Z2uj1v73rBXcL8muwOaY-7" value="&lt;u&gt;Nombre y apellido&lt;/u&gt;" style="shape=partialRectangle;connectable=0;fillColor=none;top=0;left=0;bottom=0;right=0;align=left;spacingLeft=6;overflow=hidden;whiteSpace=wrap;html=1;" vertex="1" parent="Z2uj1v73rBXcL8muwOaY-5">
          <mxGeometry x="30" width="150" height="30" as="geometry">
            <mxRectangle width="150" height="30" as="alternateBounds" />
          </mxGeometry>
        </mxCell>
        <mxCell id="Z2uj1v73rBXcL8muwOaY-8" value="" style="shape=tableRow;horizontal=0;startSize=0;swimlaneHead=0;swimlaneBody=0;fillColor=none;collapsible=0;dropTarget=0;points=[[0,0.5],[1,0.5]];portConstraint=eastwest;top=0;left=0;right=0;bottom=0;" vertex="1" parent="Z2uj1v73rBXcL8muwOaY-1">
          <mxGeometry y="90" width="180" height="30" as="geometry" />
        </mxCell>
        <mxCell id="Z2uj1v73rBXcL8muwOaY-9" value="FK" style="shape=partialRectangle;connectable=0;fillColor=none;top=0;left=0;bottom=0;right=0;editable=1;overflow=hidden;whiteSpace=wrap;html=1;" vertex="1" parent="Z2uj1v73rBXcL8muwOaY-8">
          <mxGeometry width="30" height="30" as="geometry">
            <mxRectangle width="30" height="30" as="alternateBounds" />
          </mxGeometry>
        </mxCell>
        <mxCell id="Z2uj1v73rBXcL8muwOaY-10" value="Orden de trabajo" style="shape=partialRectangle;connectable=0;fillColor=none;top=0;left=0;bottom=0;right=0;align=left;spacingLeft=6;overflow=hidden;whiteSpace=wrap;html=1;" vertex="1" parent="Z2uj1v73rBXcL8muwOaY-8">
          <mxGeometry x="30" width="150" height="30" as="geometry">
            <mxRectangle width="150" height="30" as="alternateBounds" />
          </mxGeometry>
        </mxCell>
        <mxCell id="Z2uj1v73rBXcL8muwOaY-26" value="Reclamos" style="shape=table;startSize=30;container=1;collapsible=1;childLayout=tableLayout;fixedRows=1;rowLines=0;fontStyle=1;align=center;resizeLast=1;html=1;" vertex="1" parent="1">
          <mxGeometry x="-380" y="900" width="180" height="120" as="geometry" />
        </mxCell>
        <mxCell id="Z2uj1v73rBXcL8muwOaY-27" value="" style="shape=tableRow;horizontal=0;startSize=0;swimlaneHead=0;swimlaneBody=0;fillColor=none;collapsible=0;dropTarget=0;points=[[0,0.5],[1,0.5]];portConstraint=eastwest;top=0;left=0;right=0;bottom=1;" vertex="1" parent="Z2uj1v73rBXcL8muwOaY-26">
          <mxGeometry y="30" width="180" height="30" as="geometry" />
        </mxCell>
        <mxCell id="Z2uj1v73rBXcL8muwOaY-28" value="PK" style="shape=partialRectangle;connectable=0;fillColor=none;top=0;left=0;bottom=0;right=0;fontStyle=1;overflow=hidden;whiteSpace=wrap;html=1;" vertex="1" parent="Z2uj1v73rBXcL8muwOaY-27">
          <mxGeometry width="30" height="30" as="geometry">
            <mxRectangle width="30" height="30" as="alternateBounds" />
          </mxGeometry>
        </mxCell>
        <mxCell id="Z2uj1v73rBXcL8muwOaY-29" value="ID ticket" style="shape=partialRectangle;connectable=0;fillColor=none;top=0;left=0;bottom=0;right=0;align=left;spacingLeft=6;fontStyle=5;overflow=hidden;whiteSpace=wrap;html=1;" vertex="1" parent="Z2uj1v73rBXcL8muwOaY-27">
          <mxGeometry x="30" width="150" height="30" as="geometry">
            <mxRectangle width="150" height="30" as="alternateBounds" />
          </mxGeometry>
        </mxCell>
        <mxCell id="Z2uj1v73rBXcL8muwOaY-30" value="" style="shape=tableRow;horizontal=0;startSize=0;swimlaneHead=0;swimlaneBody=0;fillColor=none;collapsible=0;dropTarget=0;points=[[0,0.5],[1,0.5]];portConstraint=eastwest;top=0;left=0;right=0;bottom=0;" vertex="1" parent="Z2uj1v73rBXcL8muwOaY-26">
          <mxGeometry y="60" width="180" height="30" as="geometry" />
        </mxCell>
        <mxCell id="Z2uj1v73rBXcL8muwOaY-31" value="FK" style="shape=partialRectangle;connectable=0;fillColor=none;top=0;left=0;bottom=0;right=0;editable=1;overflow=hidden;whiteSpace=wrap;html=1;" vertex="1" parent="Z2uj1v73rBXcL8muwOaY-30">
          <mxGeometry width="30" height="30" as="geometry">
            <mxRectangle width="30" height="30" as="alternateBounds" />
          </mxGeometry>
        </mxCell>
        <mxCell id="Z2uj1v73rBXcL8muwOaY-32" value="n° de orden" style="shape=partialRectangle;connectable=0;fillColor=none;top=0;left=0;bottom=0;right=0;align=left;spacingLeft=6;overflow=hidden;whiteSpace=wrap;html=1;" vertex="1" parent="Z2uj1v73rBXcL8muwOaY-30">
          <mxGeometry x="30" width="150" height="30" as="geometry">
            <mxRectangle width="150" height="30" as="alternateBounds" />
          </mxGeometry>
        </mxCell>
        <mxCell id="Z2uj1v73rBXcL8muwOaY-33" value="" style="shape=tableRow;horizontal=0;startSize=0;swimlaneHead=0;swimlaneBody=0;fillColor=none;collapsible=0;dropTarget=0;points=[[0,0.5],[1,0.5]];portConstraint=eastwest;top=0;left=0;right=0;bottom=0;" vertex="1" parent="Z2uj1v73rBXcL8muwOaY-26">
          <mxGeometry y="90" width="180" height="30" as="geometry" />
        </mxCell>
        <mxCell id="Z2uj1v73rBXcL8muwOaY-34" value="FK" style="shape=partialRectangle;connectable=0;fillColor=none;top=0;left=0;bottom=0;right=0;editable=1;overflow=hidden;whiteSpace=wrap;html=1;" vertex="1" parent="Z2uj1v73rBXcL8muwOaY-33">
          <mxGeometry width="30" height="30" as="geometry">
            <mxRectangle width="30" height="30" as="alternateBounds" />
          </mxGeometry>
        </mxCell>
        <mxCell id="Z2uj1v73rBXcL8muwOaY-35" value="tarea Realizado" style="shape=partialRectangle;connectable=0;fillColor=none;top=0;left=0;bottom=0;right=0;align=left;spacingLeft=6;overflow=hidden;whiteSpace=wrap;html=1;" vertex="1" parent="Z2uj1v73rBXcL8muwOaY-33">
          <mxGeometry x="30" width="150" height="30" as="geometry">
            <mxRectangle width="150" height="30" as="alternateBounds" />
          </mxGeometry>
        </mxCell>
        <mxCell id="Z2uj1v73rBXcL8muwOaY-52" value="COPROCIER&lt;span style=&quot;white-space: pre;&quot;&gt;&#x9;&lt;/span&gt;" style="shape=table;startSize=30;container=1;collapsible=1;childLayout=tableLayout;fixedRows=1;rowLines=0;fontStyle=1;align=center;resizeLast=1;html=1;" vertex="1" parent="1">
          <mxGeometry x="-380" y="1040" width="180" height="120" as="geometry" />
        </mxCell>
        <mxCell id="Z2uj1v73rBXcL8muwOaY-53" value="" style="shape=tableRow;horizontal=0;startSize=0;swimlaneHead=0;swimlaneBody=0;fillColor=none;collapsible=0;dropTarget=0;points=[[0,0.5],[1,0.5]];portConstraint=eastwest;top=0;left=0;right=0;bottom=1;" vertex="1" parent="Z2uj1v73rBXcL8muwOaY-52">
          <mxGeometry y="30" width="180" height="30" as="geometry" />
        </mxCell>
        <mxCell id="Z2uj1v73rBXcL8muwOaY-54" value="PK" style="shape=partialRectangle;connectable=0;fillColor=none;top=0;left=0;bottom=0;right=0;fontStyle=1;overflow=hidden;whiteSpace=wrap;html=1;" vertex="1" parent="Z2uj1v73rBXcL8muwOaY-53">
          <mxGeometry width="30" height="30" as="geometry">
            <mxRectangle width="30" height="30" as="alternateBounds" />
          </mxGeometry>
        </mxCell>
        <mxCell id="Z2uj1v73rBXcL8muwOaY-55" value="Direccion" style="shape=partialRectangle;connectable=0;fillColor=none;top=0;left=0;bottom=0;right=0;align=left;spacingLeft=6;fontStyle=5;overflow=hidden;whiteSpace=wrap;html=1;" vertex="1" parent="Z2uj1v73rBXcL8muwOaY-53">
          <mxGeometry x="30" width="150" height="30" as="geometry">
            <mxRectangle width="150" height="30" as="alternateBounds" />
          </mxGeometry>
        </mxCell>
        <mxCell id="Z2uj1v73rBXcL8muwOaY-69" value="" style="shape=tableRow;horizontal=0;startSize=0;swimlaneHead=0;swimlaneBody=0;fillColor=none;collapsible=0;dropTarget=0;points=[[0,0.5],[1,0.5]];portConstraint=eastwest;top=0;left=0;right=0;bottom=1;" vertex="1" parent="Z2uj1v73rBXcL8muwOaY-52">
          <mxGeometry y="60" width="180" height="30" as="geometry" />
        </mxCell>
        <mxCell id="Z2uj1v73rBXcL8muwOaY-70" value="PK" style="shape=partialRectangle;connectable=0;fillColor=none;top=0;left=0;bottom=0;right=0;fontStyle=1;overflow=hidden;whiteSpace=wrap;html=1;" vertex="1" parent="Z2uj1v73rBXcL8muwOaY-69">
          <mxGeometry width="30" height="30" as="geometry">
            <mxRectangle width="30" height="30" as="alternateBounds" />
          </mxGeometry>
        </mxCell>
        <mxCell id="Z2uj1v73rBXcL8muwOaY-71" value="Nombre" style="shape=partialRectangle;connectable=0;fillColor=none;top=0;left=0;bottom=0;right=0;align=left;spacingLeft=6;fontStyle=5;overflow=hidden;whiteSpace=wrap;html=1;" vertex="1" parent="Z2uj1v73rBXcL8muwOaY-69">
          <mxGeometry x="30" width="150" height="30" as="geometry">
            <mxRectangle width="150" height="30" as="alternateBounds" />
          </mxGeometry>
        </mxCell>
        <mxCell id="Z2uj1v73rBXcL8muwOaY-59" value="" style="shape=tableRow;horizontal=0;startSize=0;swimlaneHead=0;swimlaneBody=0;fillColor=none;collapsible=0;dropTarget=0;points=[[0,0.5],[1,0.5]];portConstraint=eastwest;top=0;left=0;right=0;bottom=0;" vertex="1" parent="Z2uj1v73rBXcL8muwOaY-52">
          <mxGeometry y="90" width="180" height="30" as="geometry" />
        </mxCell>
        <mxCell id="Z2uj1v73rBXcL8muwOaY-60" value="" style="shape=partialRectangle;connectable=0;fillColor=none;top=0;left=0;bottom=0;right=0;editable=1;overflow=hidden;whiteSpace=wrap;html=1;" vertex="1" parent="Z2uj1v73rBXcL8muwOaY-59">
          <mxGeometry width="30" height="30" as="geometry">
            <mxRectangle width="30" height="30" as="alternateBounds" />
          </mxGeometry>
        </mxCell>
        <mxCell id="Z2uj1v73rBXcL8muwOaY-61" value="Cargos" style="shape=partialRectangle;connectable=0;fillColor=none;top=0;left=0;bottom=0;right=0;align=left;spacingLeft=6;overflow=hidden;whiteSpace=wrap;html=1;" vertex="1" parent="Z2uj1v73rBXcL8muwOaY-59">
          <mxGeometry x="30" width="150" height="30" as="geometry">
            <mxRectangle width="150" height="30" as="alternateBounds" />
          </mxGeometry>
        </mxCell>
        <mxCell id="Z2uj1v73rBXcL8muwOaY-86" value="Matriculados" style="shape=table;startSize=30;container=1;collapsible=1;childLayout=tableLayout;fixedRows=1;rowLines=0;fontStyle=1;align=center;resizeLast=1;html=1;whiteSpace=wrap;" vertex="1" parent="1">
          <mxGeometry x="-1007" y="840" width="180" height="150" as="geometry" />
        </mxCell>
        <mxCell id="Z2uj1v73rBXcL8muwOaY-87" value="" style="shape=tableRow;horizontal=0;startSize=0;swimlaneHead=0;swimlaneBody=0;fillColor=none;collapsible=0;dropTarget=0;points=[[0,0.5],[1,0.5]];portConstraint=eastwest;top=0;left=0;right=0;bottom=0;html=1;" vertex="1" parent="Z2uj1v73rBXcL8muwOaY-86">
          <mxGeometry y="30" width="180" height="30" as="geometry" />
        </mxCell>
        <mxCell id="Z2uj1v73rBXcL8muwOaY-88" value="PK" style="shape=partialRectangle;connectable=0;fillColor=none;top=0;left=0;bottom=0;right=0;fontStyle=1;overflow=hidden;html=1;whiteSpace=wrap;" vertex="1" parent="Z2uj1v73rBXcL8muwOaY-87">
          <mxGeometry width="60" height="30" as="geometry">
            <mxRectangle width="60" height="30" as="alternateBounds" />
          </mxGeometry>
        </mxCell>
        <mxCell id="Z2uj1v73rBXcL8muwOaY-89" value="ID matriculado" style="shape=partialRectangle;connectable=0;fillColor=none;top=0;left=0;bottom=0;right=0;align=left;spacingLeft=6;fontStyle=5;overflow=hidden;html=1;whiteSpace=wrap;" vertex="1" parent="Z2uj1v73rBXcL8muwOaY-87">
          <mxGeometry x="60" width="120" height="30" as="geometry">
            <mxRectangle width="120" height="30" as="alternateBounds" />
          </mxGeometry>
        </mxCell>
        <mxCell id="Z2uj1v73rBXcL8muwOaY-90" value="" style="shape=tableRow;horizontal=0;startSize=0;swimlaneHead=0;swimlaneBody=0;fillColor=none;collapsible=0;dropTarget=0;points=[[0,0.5],[1,0.5]];portConstraint=eastwest;top=0;left=0;right=0;bottom=1;html=1;" vertex="1" parent="Z2uj1v73rBXcL8muwOaY-86">
          <mxGeometry y="60" width="180" height="30" as="geometry" />
        </mxCell>
        <mxCell id="Z2uj1v73rBXcL8muwOaY-91" value="PK" style="shape=partialRectangle;connectable=0;fillColor=none;top=0;left=0;bottom=0;right=0;fontStyle=1;overflow=hidden;html=1;whiteSpace=wrap;" vertex="1" parent="Z2uj1v73rBXcL8muwOaY-90">
          <mxGeometry width="60" height="30" as="geometry">
            <mxRectangle width="60" height="30" as="alternateBounds" />
          </mxGeometry>
        </mxCell>
        <mxCell id="Z2uj1v73rBXcL8muwOaY-92" value="NOMBRE Y APELLIDO" style="shape=partialRectangle;connectable=0;fillColor=none;top=0;left=0;bottom=0;right=0;align=left;spacingLeft=6;fontStyle=5;overflow=hidden;html=1;whiteSpace=wrap;" vertex="1" parent="Z2uj1v73rBXcL8muwOaY-90">
          <mxGeometry x="60" width="120" height="30" as="geometry">
            <mxRectangle width="120" height="30" as="alternateBounds" />
          </mxGeometry>
        </mxCell>
        <mxCell id="Z2uj1v73rBXcL8muwOaY-93" value="" style="shape=tableRow;horizontal=0;startSize=0;swimlaneHead=0;swimlaneBody=0;fillColor=none;collapsible=0;dropTarget=0;points=[[0,0.5],[1,0.5]];portConstraint=eastwest;top=0;left=0;right=0;bottom=0;html=1;" vertex="1" parent="Z2uj1v73rBXcL8muwOaY-86">
          <mxGeometry y="90" width="180" height="30" as="geometry" />
        </mxCell>
        <mxCell id="Z2uj1v73rBXcL8muwOaY-94" value="" style="shape=partialRectangle;connectable=0;fillColor=none;top=0;left=0;bottom=0;right=0;editable=1;overflow=hidden;html=1;whiteSpace=wrap;" vertex="1" parent="Z2uj1v73rBXcL8muwOaY-93">
          <mxGeometry width="60" height="30" as="geometry">
            <mxRectangle width="60" height="30" as="alternateBounds" />
          </mxGeometry>
        </mxCell>
        <mxCell id="Z2uj1v73rBXcL8muwOaY-95" value="Cuenta bancaria" style="shape=partialRectangle;connectable=0;fillColor=none;top=0;left=0;bottom=0;right=0;align=left;spacingLeft=6;overflow=hidden;html=1;whiteSpace=wrap;" vertex="1" parent="Z2uj1v73rBXcL8muwOaY-93">
          <mxGeometry x="60" width="120" height="30" as="geometry">
            <mxRectangle width="120" height="30" as="alternateBounds" />
          </mxGeometry>
        </mxCell>
        <mxCell id="Z2uj1v73rBXcL8muwOaY-96" value="" style="shape=tableRow;horizontal=0;startSize=0;swimlaneHead=0;swimlaneBody=0;fillColor=none;collapsible=0;dropTarget=0;points=[[0,0.5],[1,0.5]];portConstraint=eastwest;top=0;left=0;right=0;bottom=0;html=1;" vertex="1" parent="Z2uj1v73rBXcL8muwOaY-86">
          <mxGeometry y="120" width="180" height="30" as="geometry" />
        </mxCell>
        <mxCell id="Z2uj1v73rBXcL8muwOaY-97" value="" style="shape=partialRectangle;connectable=0;fillColor=none;top=0;left=0;bottom=0;right=0;editable=1;overflow=hidden;html=1;whiteSpace=wrap;" vertex="1" parent="Z2uj1v73rBXcL8muwOaY-96">
          <mxGeometry width="60" height="30" as="geometry">
            <mxRectangle width="60" height="30" as="alternateBounds" />
          </mxGeometry>
        </mxCell>
        <mxCell id="Z2uj1v73rBXcL8muwOaY-98" value="Categoria" style="shape=partialRectangle;connectable=0;fillColor=none;top=0;left=0;bottom=0;right=0;align=left;spacingLeft=6;overflow=hidden;html=1;whiteSpace=wrap;" vertex="1" parent="Z2uj1v73rBXcL8muwOaY-96">
          <mxGeometry x="60" width="120" height="30" as="geometry">
            <mxRectangle width="120" height="30" as="alternateBounds" />
          </mxGeometry>
        </mxCell>
        <mxCell id="Z2uj1v73rBXcL8muwOaY-99" value="Orden" style="shape=table;startSize=30;container=1;collapsible=1;childLayout=tableLayout;fixedRows=1;rowLines=0;fontStyle=1;align=center;resizeLast=1;html=1;" vertex="1" parent="1">
          <mxGeometry x="-710" y="900" width="180" height="180" as="geometry" />
        </mxCell>
        <mxCell id="Z2uj1v73rBXcL8muwOaY-100" value="" style="shape=tableRow;horizontal=0;startSize=0;swimlaneHead=0;swimlaneBody=0;fillColor=none;collapsible=0;dropTarget=0;points=[[0,0.5],[1,0.5]];portConstraint=eastwest;top=0;left=0;right=0;bottom=1;" vertex="1" parent="Z2uj1v73rBXcL8muwOaY-99">
          <mxGeometry y="30" width="180" height="30" as="geometry" />
        </mxCell>
        <mxCell id="Z2uj1v73rBXcL8muwOaY-101" value="PK" style="shape=partialRectangle;connectable=0;fillColor=none;top=0;left=0;bottom=0;right=0;fontStyle=1;overflow=hidden;whiteSpace=wrap;html=1;" vertex="1" parent="Z2uj1v73rBXcL8muwOaY-100">
          <mxGeometry width="30" height="30" as="geometry">
            <mxRectangle width="30" height="30" as="alternateBounds" />
          </mxGeometry>
        </mxCell>
        <mxCell id="Z2uj1v73rBXcL8muwOaY-102" value="ID de orden" style="shape=partialRectangle;connectable=0;fillColor=none;top=0;left=0;bottom=0;right=0;align=left;spacingLeft=6;fontStyle=5;overflow=hidden;whiteSpace=wrap;html=1;" vertex="1" parent="Z2uj1v73rBXcL8muwOaY-100">
          <mxGeometry x="30" width="150" height="30" as="geometry">
            <mxRectangle width="150" height="30" as="alternateBounds" />
          </mxGeometry>
        </mxCell>
        <mxCell id="Z2uj1v73rBXcL8muwOaY-103" value="" style="shape=tableRow;horizontal=0;startSize=0;swimlaneHead=0;swimlaneBody=0;fillColor=none;collapsible=0;dropTarget=0;points=[[0,0.5],[1,0.5]];portConstraint=eastwest;top=0;left=0;right=0;bottom=0;" vertex="1" parent="Z2uj1v73rBXcL8muwOaY-99">
          <mxGeometry y="60" width="180" height="30" as="geometry" />
        </mxCell>
        <mxCell id="Z2uj1v73rBXcL8muwOaY-104" value="FK" style="shape=partialRectangle;connectable=0;fillColor=none;top=0;left=0;bottom=0;right=0;editable=1;overflow=hidden;whiteSpace=wrap;html=1;" vertex="1" parent="Z2uj1v73rBXcL8muwOaY-103">
          <mxGeometry width="30" height="30" as="geometry">
            <mxRectangle width="30" height="30" as="alternateBounds" />
          </mxGeometry>
        </mxCell>
        <mxCell id="Z2uj1v73rBXcL8muwOaY-105" value="ID matriculado&lt;span style=&quot;white-space: pre;&quot;&gt;&#x9;&lt;/span&gt;&lt;span style=&quot;white-space: pre;&quot;&gt;&#x9;&lt;/span&gt;" style="shape=partialRectangle;connectable=0;fillColor=none;top=0;left=0;bottom=0;right=0;align=left;spacingLeft=6;overflow=hidden;whiteSpace=wrap;html=1;" vertex="1" parent="Z2uj1v73rBXcL8muwOaY-103">
          <mxGeometry x="30" width="150" height="30" as="geometry">
            <mxRectangle width="150" height="30" as="alternateBounds" />
          </mxGeometry>
        </mxCell>
        <mxCell id="Z2uj1v73rBXcL8muwOaY-106" value="" style="shape=tableRow;horizontal=0;startSize=0;swimlaneHead=0;swimlaneBody=0;fillColor=none;collapsible=0;dropTarget=0;points=[[0,0.5],[1,0.5]];portConstraint=eastwest;top=0;left=0;right=0;bottom=0;" vertex="1" parent="Z2uj1v73rBXcL8muwOaY-99">
          <mxGeometry y="90" width="180" height="30" as="geometry" />
        </mxCell>
        <mxCell id="Z2uj1v73rBXcL8muwOaY-107" value="FK" style="shape=partialRectangle;connectable=0;fillColor=none;top=0;left=0;bottom=0;right=0;editable=1;overflow=hidden;whiteSpace=wrap;html=1;" vertex="1" parent="Z2uj1v73rBXcL8muwOaY-106">
          <mxGeometry width="30" height="30" as="geometry">
            <mxRectangle width="30" height="30" as="alternateBounds" />
          </mxGeometry>
        </mxCell>
        <mxCell id="Z2uj1v73rBXcL8muwOaY-108" value="ID cliente" style="shape=partialRectangle;connectable=0;fillColor=none;top=0;left=0;bottom=0;right=0;align=left;spacingLeft=6;overflow=hidden;whiteSpace=wrap;html=1;" vertex="1" parent="Z2uj1v73rBXcL8muwOaY-106">
          <mxGeometry x="30" width="150" height="30" as="geometry">
            <mxRectangle width="150" height="30" as="alternateBounds" />
          </mxGeometry>
        </mxCell>
        <mxCell id="Z2uj1v73rBXcL8muwOaY-113" value="" style="shape=tableRow;horizontal=0;startSize=0;swimlaneHead=0;swimlaneBody=0;fillColor=none;collapsible=0;dropTarget=0;points=[[0,0.5],[1,0.5]];portConstraint=eastwest;top=0;left=0;right=0;bottom=0;" vertex="1" parent="Z2uj1v73rBXcL8muwOaY-99">
          <mxGeometry y="120" width="180" height="30" as="geometry" />
        </mxCell>
        <mxCell id="Z2uj1v73rBXcL8muwOaY-114" value="" style="shape=partialRectangle;connectable=0;fillColor=none;top=0;left=0;bottom=0;right=0;editable=1;overflow=hidden;" vertex="1" parent="Z2uj1v73rBXcL8muwOaY-113">
          <mxGeometry width="30" height="30" as="geometry">
            <mxRectangle width="30" height="30" as="alternateBounds" />
          </mxGeometry>
        </mxCell>
        <mxCell id="Z2uj1v73rBXcL8muwOaY-115" value="Fechas" style="shape=partialRectangle;connectable=0;fillColor=none;top=0;left=0;bottom=0;right=0;align=left;spacingLeft=6;overflow=hidden;" vertex="1" parent="Z2uj1v73rBXcL8muwOaY-113">
          <mxGeometry x="30" width="150" height="30" as="geometry">
            <mxRectangle width="150" height="30" as="alternateBounds" />
          </mxGeometry>
        </mxCell>
        <mxCell id="Z2uj1v73rBXcL8muwOaY-109" value="" style="shape=tableRow;horizontal=0;startSize=0;swimlaneHead=0;swimlaneBody=0;fillColor=none;collapsible=0;dropTarget=0;points=[[0,0.5],[1,0.5]];portConstraint=eastwest;top=0;left=0;right=0;bottom=0;" vertex="1" parent="Z2uj1v73rBXcL8muwOaY-99">
          <mxGeometry y="150" width="180" height="30" as="geometry" />
        </mxCell>
        <mxCell id="Z2uj1v73rBXcL8muwOaY-110" value="" style="shape=partialRectangle;connectable=0;fillColor=none;top=0;left=0;bottom=0;right=0;editable=1;overflow=hidden;whiteSpace=wrap;html=1;" vertex="1" parent="Z2uj1v73rBXcL8muwOaY-109">
          <mxGeometry width="30" height="30" as="geometry">
            <mxRectangle width="30" height="30" as="alternateBounds" />
          </mxGeometry>
        </mxCell>
        <mxCell id="Z2uj1v73rBXcL8muwOaY-111" value="presupuesto" style="shape=partialRectangle;connectable=0;fillColor=none;top=0;left=0;bottom=0;right=0;align=left;spacingLeft=6;overflow=hidden;whiteSpace=wrap;html=1;" vertex="1" parent="Z2uj1v73rBXcL8muwOaY-109">
          <mxGeometry x="30" width="150" height="30" as="geometry">
            <mxRectangle width="150" height="30" as="alternateBounds" />
          </mxGeometry>
        </mxCell>
        <mxCell id="Z2uj1v73rBXcL8muwOaY-116" value="Tarea" style="shape=table;startSize=30;container=1;collapsible=1;childLayout=tableLayout;fixedRows=1;rowLines=0;fontStyle=1;align=center;resizeLast=1;html=1;" vertex="1" parent="1">
          <mxGeometry x="-710" y="1100" width="180" height="150" as="geometry" />
        </mxCell>
        <mxCell id="Z2uj1v73rBXcL8muwOaY-117" value="" style="shape=tableRow;horizontal=0;startSize=0;swimlaneHead=0;swimlaneBody=0;fillColor=none;collapsible=0;dropTarget=0;points=[[0,0.5],[1,0.5]];portConstraint=eastwest;top=0;left=0;right=0;bottom=1;" vertex="1" parent="Z2uj1v73rBXcL8muwOaY-116">
          <mxGeometry y="30" width="180" height="30" as="geometry" />
        </mxCell>
        <mxCell id="Z2uj1v73rBXcL8muwOaY-118" value="PK" style="shape=partialRectangle;connectable=0;fillColor=none;top=0;left=0;bottom=0;right=0;fontStyle=1;overflow=hidden;whiteSpace=wrap;html=1;" vertex="1" parent="Z2uj1v73rBXcL8muwOaY-117">
          <mxGeometry width="30" height="30" as="geometry">
            <mxRectangle width="30" height="30" as="alternateBounds" />
          </mxGeometry>
        </mxCell>
        <mxCell id="Z2uj1v73rBXcL8muwOaY-119" value="ID tarea" style="shape=partialRectangle;connectable=0;fillColor=none;top=0;left=0;bottom=0;right=0;align=left;spacingLeft=6;fontStyle=5;overflow=hidden;whiteSpace=wrap;html=1;" vertex="1" parent="Z2uj1v73rBXcL8muwOaY-117">
          <mxGeometry x="30" width="150" height="30" as="geometry">
            <mxRectangle width="150" height="30" as="alternateBounds" />
          </mxGeometry>
        </mxCell>
        <mxCell id="Z2uj1v73rBXcL8muwOaY-120" value="" style="shape=tableRow;horizontal=0;startSize=0;swimlaneHead=0;swimlaneBody=0;fillColor=none;collapsible=0;dropTarget=0;points=[[0,0.5],[1,0.5]];portConstraint=eastwest;top=0;left=0;right=0;bottom=0;" vertex="1" parent="Z2uj1v73rBXcL8muwOaY-116">
          <mxGeometry y="60" width="180" height="30" as="geometry" />
        </mxCell>
        <mxCell id="Z2uj1v73rBXcL8muwOaY-121" value="" style="shape=partialRectangle;connectable=0;fillColor=none;top=0;left=0;bottom=0;right=0;editable=1;overflow=hidden;whiteSpace=wrap;html=1;" vertex="1" parent="Z2uj1v73rBXcL8muwOaY-120">
          <mxGeometry width="30" height="30" as="geometry">
            <mxRectangle width="30" height="30" as="alternateBounds" />
          </mxGeometry>
        </mxCell>
        <mxCell id="Z2uj1v73rBXcL8muwOaY-122" value="tarea a realizar" style="shape=partialRectangle;connectable=0;fillColor=none;top=0;left=0;bottom=0;right=0;align=left;spacingLeft=6;overflow=hidden;whiteSpace=wrap;html=1;" vertex="1" parent="Z2uj1v73rBXcL8muwOaY-120">
          <mxGeometry x="30" width="150" height="30" as="geometry">
            <mxRectangle width="150" height="30" as="alternateBounds" />
          </mxGeometry>
        </mxCell>
        <mxCell id="Z2uj1v73rBXcL8muwOaY-123" value="" style="shape=tableRow;horizontal=0;startSize=0;swimlaneHead=0;swimlaneBody=0;fillColor=none;collapsible=0;dropTarget=0;points=[[0,0.5],[1,0.5]];portConstraint=eastwest;top=0;left=0;right=0;bottom=0;" vertex="1" parent="Z2uj1v73rBXcL8muwOaY-116">
          <mxGeometry y="90" width="180" height="30" as="geometry" />
        </mxCell>
        <mxCell id="Z2uj1v73rBXcL8muwOaY-124" value="" style="shape=partialRectangle;connectable=0;fillColor=none;top=0;left=0;bottom=0;right=0;editable=1;overflow=hidden;whiteSpace=wrap;html=1;" vertex="1" parent="Z2uj1v73rBXcL8muwOaY-123">
          <mxGeometry width="30" height="30" as="geometry">
            <mxRectangle width="30" height="30" as="alternateBounds" />
          </mxGeometry>
        </mxCell>
        <mxCell id="Z2uj1v73rBXcL8muwOaY-125" value="gastos" style="shape=partialRectangle;connectable=0;fillColor=none;top=0;left=0;bottom=0;right=0;align=left;spacingLeft=6;overflow=hidden;whiteSpace=wrap;html=1;" vertex="1" parent="Z2uj1v73rBXcL8muwOaY-123">
          <mxGeometry x="30" width="150" height="30" as="geometry">
            <mxRectangle width="150" height="30" as="alternateBounds" />
          </mxGeometry>
        </mxCell>
        <mxCell id="Z2uj1v73rBXcL8muwOaY-126" value="" style="shape=tableRow;horizontal=0;startSize=0;swimlaneHead=0;swimlaneBody=0;fillColor=none;collapsible=0;dropTarget=0;points=[[0,0.5],[1,0.5]];portConstraint=eastwest;top=0;left=0;right=0;bottom=0;" vertex="1" parent="Z2uj1v73rBXcL8muwOaY-116">
          <mxGeometry y="120" width="180" height="30" as="geometry" />
        </mxCell>
        <mxCell id="Z2uj1v73rBXcL8muwOaY-127" value="" style="shape=partialRectangle;connectable=0;fillColor=none;top=0;left=0;bottom=0;right=0;editable=1;overflow=hidden;whiteSpace=wrap;html=1;" vertex="1" parent="Z2uj1v73rBXcL8muwOaY-126">
          <mxGeometry width="30" height="30" as="geometry">
            <mxRectangle width="30" height="30" as="alternateBounds" />
          </mxGeometry>
        </mxCell>
        <mxCell id="Z2uj1v73rBXcL8muwOaY-128" value="&lt;span style=&quot;text-align: center;&quot;&gt;Honorarios&lt;/span&gt;" style="shape=partialRectangle;connectable=0;fillColor=none;top=0;left=0;bottom=0;right=0;align=left;spacingLeft=6;overflow=hidden;whiteSpace=wrap;html=1;" vertex="1" parent="Z2uj1v73rBXcL8muwOaY-126">
          <mxGeometry x="30" width="150" height="30" as="geometry">
            <mxRectangle width="150" height="30" as="alternateBounds" />
          </mxGeometry>
        </mxCell>
        <mxCell id="Z2uj1v73rBXcL8muwOaY-138" value="Presupuestos" style="ellipse;whiteSpace=wrap;html=1;align=center;" vertex="1" parent="1">
          <mxGeometry x="-1280" y="385" width="100" height="40" as="geometry" />
        </mxCell>
        <mxCell id="Z2uj1v73rBXcL8muwOaY-140" value="Progreso" style="ellipse;whiteSpace=wrap;html=1;align=center;" vertex="1" parent="1">
          <mxGeometry x="-1280" y="530" width="100" height="40" as="geometry" />
        </mxCell>
        <mxCell id="Z2uj1v73rBXcL8muwOaY-141" value="" style="endArrow=none;html=1;rounded=0;exitX=1;exitY=0.5;exitDx=0;exitDy=0;" edge="1" parent="1" source="Z2uj1v73rBXcL8muwOaY-140">
          <mxGeometry relative="1" as="geometry">
            <mxPoint x="-1170" y="530" as="sourcePoint" />
            <mxPoint x="-1140" y="430" as="targetPoint" />
          </mxGeometry>
        </mxCell>
        <mxCell id="Z2uj1v73rBXcL8muwOaY-144" style="edgeStyle=orthogonalEdgeStyle;rounded=0;orthogonalLoop=1;jettySize=auto;html=1;exitX=1;exitY=0.5;exitDx=0;exitDy=0;entryX=0;entryY=0.5;entryDx=0;entryDy=0;" edge="1" parent="1" source="Z2uj1v73rBXcL8muwOaY-100" target="Z2uj1v73rBXcL8muwOaY-30">
          <mxGeometry relative="1" as="geometry" />
        </mxCell>
        <mxCell id="Z2uj1v73rBXcL8muwOaY-145" style="edgeStyle=orthogonalEdgeStyle;rounded=0;orthogonalLoop=1;jettySize=auto;html=1;exitX=1;exitY=0.5;exitDx=0;exitDy=0;entryX=0;entryY=0.5;entryDx=0;entryDy=0;" edge="1" parent="1" source="Z2uj1v73rBXcL8muwOaY-120" target="Z2uj1v73rBXcL8muwOaY-33">
          <mxGeometry relative="1" as="geometry" />
        </mxCell>
        <mxCell id="Z2uj1v73rBXcL8muwOaY-39" value="Informe" style="shape=table;startSize=30;container=1;collapsible=1;childLayout=tableLayout;fixedRows=1;rowLines=0;fontStyle=1;align=center;resizeLast=1;html=1;" vertex="1" parent="1">
          <mxGeometry x="-1010" y="1020" width="180" height="170" as="geometry" />
        </mxCell>
        <mxCell id="Z2uj1v73rBXcL8muwOaY-40" value="" style="shape=tableRow;horizontal=0;startSize=0;swimlaneHead=0;swimlaneBody=0;fillColor=none;collapsible=0;dropTarget=0;points=[[0,0.5],[1,0.5]];portConstraint=eastwest;top=0;left=0;right=0;bottom=1;" vertex="1" parent="Z2uj1v73rBXcL8muwOaY-39">
          <mxGeometry y="30" width="180" height="30" as="geometry" />
        </mxCell>
        <mxCell id="Z2uj1v73rBXcL8muwOaY-41" value="PK" style="shape=partialRectangle;connectable=0;fillColor=none;top=0;left=0;bottom=0;right=0;fontStyle=1;overflow=hidden;whiteSpace=wrap;html=1;" vertex="1" parent="Z2uj1v73rBXcL8muwOaY-40">
          <mxGeometry width="30" height="30" as="geometry">
            <mxRectangle width="30" height="30" as="alternateBounds" />
          </mxGeometry>
        </mxCell>
        <mxCell id="Z2uj1v73rBXcL8muwOaY-42" value="N° de Informe" style="shape=partialRectangle;connectable=0;fillColor=none;top=0;left=0;bottom=0;right=0;align=left;spacingLeft=6;fontStyle=5;overflow=hidden;whiteSpace=wrap;html=1;" vertex="1" parent="Z2uj1v73rBXcL8muwOaY-40">
          <mxGeometry x="30" width="150" height="30" as="geometry">
            <mxRectangle width="150" height="30" as="alternateBounds" />
          </mxGeometry>
        </mxCell>
        <mxCell id="Z2uj1v73rBXcL8muwOaY-43" value="" style="shape=tableRow;horizontal=0;startSize=0;swimlaneHead=0;swimlaneBody=0;fillColor=none;collapsible=0;dropTarget=0;points=[[0,0.5],[1,0.5]];portConstraint=eastwest;top=0;left=0;right=0;bottom=0;" vertex="1" parent="Z2uj1v73rBXcL8muwOaY-39">
          <mxGeometry y="60" width="180" height="20" as="geometry" />
        </mxCell>
        <mxCell id="Z2uj1v73rBXcL8muwOaY-44" value="FK" style="shape=partialRectangle;connectable=0;fillColor=none;top=0;left=0;bottom=0;right=0;editable=1;overflow=hidden;whiteSpace=wrap;html=1;" vertex="1" parent="Z2uj1v73rBXcL8muwOaY-43">
          <mxGeometry width="30" height="20" as="geometry">
            <mxRectangle width="30" height="20" as="alternateBounds" />
          </mxGeometry>
        </mxCell>
        <mxCell id="Z2uj1v73rBXcL8muwOaY-45" value="Presupuestos" style="shape=partialRectangle;connectable=0;fillColor=none;top=0;left=0;bottom=0;right=0;align=left;spacingLeft=6;overflow=hidden;whiteSpace=wrap;html=1;" vertex="1" parent="Z2uj1v73rBXcL8muwOaY-43">
          <mxGeometry x="30" width="150" height="20" as="geometry">
            <mxRectangle width="150" height="20" as="alternateBounds" />
          </mxGeometry>
        </mxCell>
        <mxCell id="Z2uj1v73rBXcL8muwOaY-46" value="" style="shape=tableRow;horizontal=0;startSize=0;swimlaneHead=0;swimlaneBody=0;fillColor=none;collapsible=0;dropTarget=0;points=[[0,0.5],[1,0.5]];portConstraint=eastwest;top=0;left=0;right=0;bottom=0;" vertex="1" parent="Z2uj1v73rBXcL8muwOaY-39">
          <mxGeometry y="80" width="180" height="20" as="geometry" />
        </mxCell>
        <mxCell id="Z2uj1v73rBXcL8muwOaY-47" value="" style="shape=partialRectangle;connectable=0;fillColor=none;top=0;left=0;bottom=0;right=0;editable=1;overflow=hidden;whiteSpace=wrap;html=1;" vertex="1" parent="Z2uj1v73rBXcL8muwOaY-46">
          <mxGeometry width="30" height="20" as="geometry">
            <mxRectangle width="30" height="20" as="alternateBounds" />
          </mxGeometry>
        </mxCell>
        <mxCell id="Z2uj1v73rBXcL8muwOaY-48" value="Progresos" style="shape=partialRectangle;connectable=0;fillColor=none;top=0;left=0;bottom=0;right=0;align=left;spacingLeft=6;overflow=hidden;whiteSpace=wrap;html=1;" vertex="1" parent="Z2uj1v73rBXcL8muwOaY-46">
          <mxGeometry x="30" width="150" height="20" as="geometry">
            <mxRectangle width="150" height="20" as="alternateBounds" />
          </mxGeometry>
        </mxCell>
        <mxCell id="Z2uj1v73rBXcL8muwOaY-135" value="" style="shape=tableRow;horizontal=0;startSize=0;swimlaneHead=0;swimlaneBody=0;fillColor=none;collapsible=0;dropTarget=0;points=[[0,0.5],[1,0.5]];portConstraint=eastwest;top=0;left=0;right=0;bottom=0;" vertex="1" parent="Z2uj1v73rBXcL8muwOaY-39">
          <mxGeometry y="100" width="180" height="30" as="geometry" />
        </mxCell>
        <mxCell id="Z2uj1v73rBXcL8muwOaY-136" value="FK" style="shape=partialRectangle;connectable=0;fillColor=none;top=0;left=0;bottom=0;right=0;editable=1;overflow=hidden;" vertex="1" parent="Z2uj1v73rBXcL8muwOaY-135">
          <mxGeometry width="30" height="30" as="geometry">
            <mxRectangle width="30" height="30" as="alternateBounds" />
          </mxGeometry>
        </mxCell>
        <mxCell id="Z2uj1v73rBXcL8muwOaY-137" value="Gastos" style="shape=partialRectangle;connectable=0;fillColor=none;top=0;left=0;bottom=0;right=0;align=left;spacingLeft=6;overflow=hidden;" vertex="1" parent="Z2uj1v73rBXcL8muwOaY-135">
          <mxGeometry x="30" width="150" height="30" as="geometry">
            <mxRectangle width="150" height="30" as="alternateBounds" />
          </mxGeometry>
        </mxCell>
        <mxCell id="Z2uj1v73rBXcL8muwOaY-49" value="" style="shape=tableRow;horizontal=0;startSize=0;swimlaneHead=0;swimlaneBody=0;fillColor=none;collapsible=0;dropTarget=0;points=[[0,0.5],[1,0.5]];portConstraint=eastwest;top=0;left=0;right=0;bottom=0;" vertex="1" parent="Z2uj1v73rBXcL8muwOaY-39">
          <mxGeometry y="130" width="180" height="40" as="geometry" />
        </mxCell>
        <mxCell id="Z2uj1v73rBXcL8muwOaY-50" value="" style="shape=partialRectangle;connectable=0;fillColor=none;top=0;left=0;bottom=0;right=0;editable=1;overflow=hidden;whiteSpace=wrap;html=1;" vertex="1" parent="Z2uj1v73rBXcL8muwOaY-49">
          <mxGeometry width="30" height="40" as="geometry">
            <mxRectangle width="30" height="40" as="alternateBounds" />
          </mxGeometry>
        </mxCell>
        <mxCell id="Z2uj1v73rBXcL8muwOaY-51" value="Desempeño" style="shape=partialRectangle;connectable=0;fillColor=none;top=0;left=0;bottom=0;right=0;align=left;spacingLeft=6;overflow=hidden;whiteSpace=wrap;html=1;" vertex="1" parent="Z2uj1v73rBXcL8muwOaY-49">
          <mxGeometry x="30" width="150" height="40" as="geometry">
            <mxRectangle width="150" height="40" as="alternateBounds" />
          </mxGeometry>
        </mxCell>
        <mxCell id="Z2uj1v73rBXcL8muwOaY-150" style="edgeStyle=orthogonalEdgeStyle;rounded=0;orthogonalLoop=1;jettySize=auto;html=1;exitX=0;exitY=0.5;exitDx=0;exitDy=0;entryX=1;entryY=0.5;entryDx=0;entryDy=0;" edge="1" parent="1" source="Z2uj1v73rBXcL8muwOaY-109" target="Z2uj1v73rBXcL8muwOaY-43">
          <mxGeometry relative="1" as="geometry">
            <Array as="points">
              <mxPoint x="-790" y="1065" />
              <mxPoint x="-790" y="1090" />
            </Array>
          </mxGeometry>
        </mxCell>
        <mxCell id="Z2uj1v73rBXcL8muwOaY-151" style="edgeStyle=orthogonalEdgeStyle;rounded=0;orthogonalLoop=1;jettySize=auto;html=1;exitX=0;exitY=0.5;exitDx=0;exitDy=0;entryX=1;entryY=0.5;entryDx=0;entryDy=0;" edge="1" parent="1" source="Z2uj1v73rBXcL8muwOaY-123" target="Z2uj1v73rBXcL8muwOaY-135">
          <mxGeometry relative="1" as="geometry" />
        </mxCell>
        <mxCell id="Z2uj1v73rBXcL8muwOaY-152" style="edgeStyle=orthogonalEdgeStyle;rounded=0;orthogonalLoop=1;jettySize=auto;html=1;exitX=1;exitY=0.5;exitDx=0;exitDy=0;entryX=0;entryY=0.5;entryDx=0;entryDy=0;" edge="1" parent="1" source="Z2uj1v73rBXcL8muwOaY-100" target="Z2uj1v73rBXcL8muwOaY-8">
          <mxGeometry relative="1" as="geometry" />
        </mxCell>
        <mxCell id="Z2uj1v73rBXcL8muwOaY-178" style="edgeStyle=orthogonalEdgeStyle;rounded=0;orthogonalLoop=1;jettySize=auto;html=1;exitX=1;exitY=0.5;exitDx=0;exitDy=0;entryX=0;entryY=0.5;entryDx=0;entryDy=0;" edge="1" parent="1" source="Z2uj1v73rBXcL8muwOaY-87" target="Z2uj1v73rBXcL8muwOaY-103">
          <mxGeometry relative="1" as="geometry" />
        </mxCell>
        <mxCell id="Z2uj1v73rBXcL8muwOaY-179" style="edgeStyle=orthogonalEdgeStyle;rounded=0;orthogonalLoop=1;jettySize=auto;html=1;exitX=0;exitY=0.5;exitDx=0;exitDy=0;entryX=1;entryY=0.5;entryDx=0;entryDy=0;" edge="1" parent="1" source="Z2uj1v73rBXcL8muwOaY-2" target="Z2uj1v73rBXcL8muwOaY-106">
          <mxGeometry relative="1" as="geometry">
            <Array as="points">
              <mxPoint x="-490" y="805" />
              <mxPoint x="-490" y="1005" />
            </Array>
          </mxGeometry>
        </mxCell>
      </root>
    </mxGraphModel>
  </diagram>
</mxfile>
